<mxfile host="app.diagrams.net" modified="2023-03-29T23:01:16.542Z" agent="5.0 (Windows)" etag="rNWFDt7FPe2xs2xb1nPQ" version="20.8.16" type="github">
  <diagram name="Page-1" id="zaOjU6z9Uq0UB92PRndk">
    <mxGraphModel dx="1740" dy="1066" grid="1" gridSize="10" guides="1" tooltips="1" connect="1" arrows="1" fold="1" page="1" pageScale="1" pageWidth="850" pageHeight="1100" math="0" shadow="0">
      <root>
        <mxCell id="0" />
        <mxCell id="1" parent="0" />
        <mxCell id="DcJpeOVkso_X0u59leY8-64" value="" style="swimlane;startSize=0;fontSize=14;fontColor=#000000;dashed=1;" vertex="1" parent="1">
          <mxGeometry x="960" y="80" width="660" height="700" as="geometry" />
        </mxCell>
        <mxCell id="DcJpeOVkso_X0u59leY8-30" value="&lt;font style=&quot;font-size: 12px;&quot;&gt;get gas total to process all due system&amp;nbsp; jobs&lt;/font&gt;" style="rounded=1;whiteSpace=wrap;html=1;fontSize=14;fontColor=#000000;" vertex="1" parent="DcJpeOVkso_X0u59leY8-64">
          <mxGeometry x="70" y="70" width="120" height="60" as="geometry" />
        </mxCell>
        <mxCell id="DcJpeOVkso_X0u59leY8-31" value="&lt;font style=&quot;font-size: 12px;&quot;&gt;&amp;lt; gasleft&lt;/font&gt;" style="rhombus;whiteSpace=wrap;html=1;fontSize=14;fontColor=#000000;" vertex="1" parent="DcJpeOVkso_X0u59leY8-64">
          <mxGeometry x="90" y="180" width="80" height="80" as="geometry" />
        </mxCell>
        <mxCell id="DcJpeOVkso_X0u59leY8-32" style="edgeStyle=orthogonalEdgeStyle;curved=1;rounded=0;sketch=0;orthogonalLoop=1;jettySize=auto;html=1;exitX=0.5;exitY=1;exitDx=0;exitDy=0;entryX=0.5;entryY=0;entryDx=0;entryDy=0;fontSize=14;fontColor=#000000;endArrow=classic;endFill=1;" edge="1" parent="DcJpeOVkso_X0u59leY8-64" source="DcJpeOVkso_X0u59leY8-30" target="DcJpeOVkso_X0u59leY8-31">
          <mxGeometry relative="1" as="geometry" />
        </mxCell>
        <mxCell id="DcJpeOVkso_X0u59leY8-33" value="&lt;font style=&quot;font-size: 12px;&quot;&gt;run all due system jobs&lt;/font&gt;" style="rounded=1;whiteSpace=wrap;html=1;fontSize=14;fontColor=#000000;" vertex="1" parent="DcJpeOVkso_X0u59leY8-64">
          <mxGeometry x="292" y="190" width="120" height="60" as="geometry" />
        </mxCell>
        <mxCell id="DcJpeOVkso_X0u59leY8-37" value="yes" style="edgeStyle=orthogonalEdgeStyle;rounded=0;sketch=0;orthogonalLoop=1;jettySize=auto;html=1;exitX=1;exitY=0.5;exitDx=0;exitDy=0;entryX=0;entryY=0.5;entryDx=0;entryDy=0;fontSize=14;fontColor=#000000;endArrow=classic;endFill=1;" edge="1" parent="DcJpeOVkso_X0u59leY8-64" source="DcJpeOVkso_X0u59leY8-31" target="DcJpeOVkso_X0u59leY8-33">
          <mxGeometry relative="1" as="geometry" />
        </mxCell>
        <mxCell id="DcJpeOVkso_X0u59leY8-34" value="&lt;font style=&quot;font-size: 12px;&quot;&gt;run next due system&amp;nbsp; job&lt;/font&gt;" style="rounded=1;whiteSpace=wrap;html=1;fontSize=14;fontColor=#000000;" vertex="1" parent="DcJpeOVkso_X0u59leY8-64">
          <mxGeometry x="70" y="292.5" width="120" height="60" as="geometry" />
        </mxCell>
        <mxCell id="DcJpeOVkso_X0u59leY8-39" value="no" style="edgeStyle=orthogonalEdgeStyle;rounded=0;sketch=0;orthogonalLoop=1;jettySize=auto;html=1;exitX=0.5;exitY=1;exitDx=0;exitDy=0;entryX=0.5;entryY=0;entryDx=0;entryDy=0;fontSize=14;fontColor=#000000;endArrow=classic;endFill=1;" edge="1" parent="DcJpeOVkso_X0u59leY8-64" source="DcJpeOVkso_X0u59leY8-31" target="DcJpeOVkso_X0u59leY8-34">
          <mxGeometry relative="1" as="geometry" />
        </mxCell>
        <mxCell id="DcJpeOVkso_X0u59leY8-42" value="yes" style="edgeStyle=orthogonalEdgeStyle;rounded=0;sketch=0;orthogonalLoop=1;jettySize=auto;html=1;exitX=0;exitY=0.5;exitDx=0;exitDy=0;entryX=0;entryY=0.5;entryDx=0;entryDy=0;fontSize=14;fontColor=#000000;endArrow=classic;endFill=1;" edge="1" parent="DcJpeOVkso_X0u59leY8-64" source="DcJpeOVkso_X0u59leY8-38" target="DcJpeOVkso_X0u59leY8-34">
          <mxGeometry relative="1" as="geometry">
            <Array as="points">
              <mxPoint x="30" y="432.5" />
              <mxPoint x="30" y="322.5" />
            </Array>
          </mxGeometry>
        </mxCell>
        <mxCell id="DcJpeOVkso_X0u59leY8-38" value="&lt;font style=&quot;font-size: 12px;&quot;&gt;&amp;lt; gasleft&lt;/font&gt;" style="rhombus;whiteSpace=wrap;html=1;fontSize=14;fontColor=#000000;" vertex="1" parent="DcJpeOVkso_X0u59leY8-64">
          <mxGeometry x="90" y="392.5" width="80" height="80" as="geometry" />
        </mxCell>
        <mxCell id="DcJpeOVkso_X0u59leY8-40" style="edgeStyle=orthogonalEdgeStyle;rounded=0;sketch=0;orthogonalLoop=1;jettySize=auto;html=1;exitX=0.5;exitY=1;exitDx=0;exitDy=0;entryX=0.5;entryY=0;entryDx=0;entryDy=0;fontSize=14;fontColor=#000000;endArrow=classic;endFill=1;" edge="1" parent="DcJpeOVkso_X0u59leY8-64" source="DcJpeOVkso_X0u59leY8-34" target="DcJpeOVkso_X0u59leY8-38">
          <mxGeometry relative="1" as="geometry" />
        </mxCell>
        <mxCell id="DcJpeOVkso_X0u59leY8-41" value="&lt;font style=&quot;font-size: 12px;&quot;&gt;return&lt;/font&gt;" style="rounded=1;whiteSpace=wrap;html=1;fontSize=14;fontColor=#000000;" vertex="1" parent="DcJpeOVkso_X0u59leY8-64">
          <mxGeometry x="70" y="590" width="120" height="60" as="geometry" />
        </mxCell>
        <mxCell id="DcJpeOVkso_X0u59leY8-43" value="no" style="edgeStyle=orthogonalEdgeStyle;rounded=0;sketch=0;orthogonalLoop=1;jettySize=auto;html=1;exitX=0.5;exitY=1;exitDx=0;exitDy=0;fontSize=14;fontColor=#000000;endArrow=classic;endFill=1;" edge="1" parent="DcJpeOVkso_X0u59leY8-64" source="DcJpeOVkso_X0u59leY8-38" target="DcJpeOVkso_X0u59leY8-41">
          <mxGeometry relative="1" as="geometry" />
        </mxCell>
        <mxCell id="DcJpeOVkso_X0u59leY8-47" value="&lt;font style=&quot;font-size: 12px;&quot;&gt;paid job&lt;/font&gt;" style="rounded=1;whiteSpace=wrap;html=1;fontSize=14;fontColor=#000000;" vertex="1" parent="DcJpeOVkso_X0u59leY8-64">
          <mxGeometry x="510" y="292.5" width="120" height="60" as="geometry" />
        </mxCell>
        <mxCell id="DcJpeOVkso_X0u59leY8-53" value="yes" style="edgeStyle=orthogonalEdgeStyle;rounded=0;sketch=0;orthogonalLoop=1;jettySize=auto;html=1;exitX=1;exitY=0.5;exitDx=0;exitDy=0;entryX=0;entryY=0.5;entryDx=0;entryDy=0;fontSize=14;fontColor=#000000;endArrow=classic;endFill=1;" edge="1" parent="DcJpeOVkso_X0u59leY8-64" source="DcJpeOVkso_X0u59leY8-49" target="DcJpeOVkso_X0u59leY8-47">
          <mxGeometry relative="1" as="geometry" />
        </mxCell>
        <mxCell id="DcJpeOVkso_X0u59leY8-49" value="&lt;font style=&quot;font-size: 12px;&quot;&gt;gasleft &amp;gt; 20000&lt;/font&gt;" style="rhombus;whiteSpace=wrap;html=1;fontSize=14;fontColor=#000000;" vertex="1" parent="DcJpeOVkso_X0u59leY8-64">
          <mxGeometry x="290" y="282.5" width="125" height="80" as="geometry" />
        </mxCell>
        <mxCell id="DcJpeOVkso_X0u59leY8-54" style="edgeStyle=orthogonalEdgeStyle;rounded=0;sketch=0;orthogonalLoop=1;jettySize=auto;html=1;exitX=0.5;exitY=1;exitDx=0;exitDy=0;entryX=0.5;entryY=0;entryDx=0;entryDy=0;fontSize=14;fontColor=#000000;endArrow=classic;endFill=1;" edge="1" parent="DcJpeOVkso_X0u59leY8-64" source="DcJpeOVkso_X0u59leY8-33" target="DcJpeOVkso_X0u59leY8-49">
          <mxGeometry relative="1" as="geometry" />
        </mxCell>
        <mxCell id="DcJpeOVkso_X0u59leY8-62" value="no" style="edgeStyle=orthogonalEdgeStyle;rounded=0;sketch=0;orthogonalLoop=1;jettySize=auto;html=1;exitX=0;exitY=0.5;exitDx=0;exitDy=0;entryX=1;entryY=0.5;entryDx=0;entryDy=0;fontSize=14;fontColor=#000000;endArrow=classic;endFill=1;" edge="1" parent="DcJpeOVkso_X0u59leY8-64" source="DcJpeOVkso_X0u59leY8-55" target="DcJpeOVkso_X0u59leY8-41">
          <mxGeometry relative="1" as="geometry" />
        </mxCell>
        <mxCell id="DcJpeOVkso_X0u59leY8-55" value="&lt;font style=&quot;font-size: 12px;&quot;&gt;gasleft &amp;gt; 6000&lt;/font&gt;" style="rhombus;whiteSpace=wrap;html=1;fontSize=14;fontColor=#000000;" vertex="1" parent="DcJpeOVkso_X0u59leY8-64">
          <mxGeometry x="292.5" y="392.5" width="120" height="80" as="geometry" />
        </mxCell>
        <mxCell id="DcJpeOVkso_X0u59leY8-57" style="edgeStyle=orthogonalEdgeStyle;rounded=0;sketch=0;orthogonalLoop=1;jettySize=auto;html=1;exitX=0.5;exitY=1;exitDx=0;exitDy=0;entryX=1;entryY=0.5;entryDx=0;entryDy=0;fontSize=14;fontColor=#000000;endArrow=classic;endFill=1;" edge="1" parent="DcJpeOVkso_X0u59leY8-64" source="DcJpeOVkso_X0u59leY8-47" target="DcJpeOVkso_X0u59leY8-55">
          <mxGeometry relative="1" as="geometry" />
        </mxCell>
        <mxCell id="DcJpeOVkso_X0u59leY8-56" value="no" style="edgeStyle=orthogonalEdgeStyle;rounded=0;sketch=0;orthogonalLoop=1;jettySize=auto;html=1;exitX=0.5;exitY=1;exitDx=0;exitDy=0;entryX=0.5;entryY=0;entryDx=0;entryDy=0;fontSize=14;fontColor=#000000;endArrow=classic;endFill=1;" edge="1" parent="DcJpeOVkso_X0u59leY8-64" source="DcJpeOVkso_X0u59leY8-49" target="DcJpeOVkso_X0u59leY8-55">
          <mxGeometry relative="1" as="geometry" />
        </mxCell>
        <mxCell id="DcJpeOVkso_X0u59leY8-61" style="edgeStyle=orthogonalEdgeStyle;rounded=0;sketch=0;orthogonalLoop=1;jettySize=auto;html=1;exitX=1;exitY=0.5;exitDx=0;exitDy=0;entryX=1;entryY=0.5;entryDx=0;entryDy=0;fontSize=14;fontColor=#000000;endArrow=classic;endFill=1;" edge="1" parent="DcJpeOVkso_X0u59leY8-64" source="DcJpeOVkso_X0u59leY8-58" target="DcJpeOVkso_X0u59leY8-55">
          <mxGeometry relative="1" as="geometry">
            <Array as="points">
              <mxPoint x="570" y="620" />
              <mxPoint x="570" y="432" />
            </Array>
          </mxGeometry>
        </mxCell>
        <mxCell id="DcJpeOVkso_X0u59leY8-58" value="&lt;font style=&quot;font-size: 12px;&quot;&gt;iterate through a free job&lt;/font&gt;" style="rounded=1;whiteSpace=wrap;html=1;fontSize=14;fontColor=#000000;" vertex="1" parent="DcJpeOVkso_X0u59leY8-64">
          <mxGeometry x="292.5" y="590" width="120" height="60" as="geometry" />
        </mxCell>
        <mxCell id="DcJpeOVkso_X0u59leY8-59" value="yes" style="edgeStyle=orthogonalEdgeStyle;rounded=0;sketch=0;orthogonalLoop=1;jettySize=auto;html=1;exitX=0.5;exitY=1;exitDx=0;exitDy=0;entryX=0.5;entryY=0;entryDx=0;entryDy=0;fontSize=14;fontColor=#000000;endArrow=classic;endFill=1;" edge="1" parent="DcJpeOVkso_X0u59leY8-64" source="DcJpeOVkso_X0u59leY8-55" target="DcJpeOVkso_X0u59leY8-58">
          <mxGeometry relative="1" as="geometry" />
        </mxCell>
        <mxCell id="DcJpeOVkso_X0u59leY8-70" value="&lt;font style=&quot;font-size: 14px;&quot; color=&quot;#ff0000&quot;&gt;Jobs Contract&lt;/font&gt;" style="text;html=1;strokeColor=none;fillColor=none;align=center;verticalAlign=middle;whiteSpace=wrap;rounded=0;" vertex="1" parent="DcJpeOVkso_X0u59leY8-64">
          <mxGeometry x="550" y="10" width="100" height="30" as="geometry" />
        </mxCell>
        <mxCell id="DcJpeOVkso_X0u59leY8-74" style="edgeStyle=none;rounded=0;sketch=0;orthogonalLoop=1;jettySize=auto;html=1;exitX=0.5;exitY=0;exitDx=0;exitDy=0;entryX=0.5;entryY=1;entryDx=0;entryDy=0;fontSize=14;fontColor=#000000;endArrow=async;endFill=0;" edge="1" parent="1" source="DcJpeOVkso_X0u59leY8-1" target="DcJpeOVkso_X0u59leY8-2">
          <mxGeometry relative="1" as="geometry" />
        </mxCell>
        <mxCell id="DcJpeOVkso_X0u59leY8-1" value="&lt;div&gt;State Contract&lt;/div&gt;(Delegate)" style="rounded=0;whiteSpace=wrap;html=1;" vertex="1" parent="1">
          <mxGeometry x="280" y="640" width="120" height="60" as="geometry" />
        </mxCell>
        <mxCell id="DcJpeOVkso_X0u59leY8-14" value="&lt;font style=&quot;font-size: 14px;&quot;&gt;transmit offset gas&lt;/font&gt;" style="edgeStyle=orthogonalEdgeStyle;rounded=0;sketch=0;orthogonalLoop=1;jettySize=auto;html=1;exitX=0.5;exitY=0;exitDx=0;exitDy=0;entryX=0.5;entryY=1;entryDx=0;entryDy=0;endArrow=async;endFill=1;" edge="1" parent="1" source="DcJpeOVkso_X0u59leY8-2" target="DcJpeOVkso_X0u59leY8-4">
          <mxGeometry relative="1" as="geometry">
            <Array as="points">
              <mxPoint x="350" y="480" />
              <mxPoint x="350" y="390" />
            </Array>
          </mxGeometry>
        </mxCell>
        <mxCell id="DcJpeOVkso_X0u59leY8-75" value="&lt;font style=&quot;font-size: 14px;&quot;&gt;payable tx&lt;/font&gt;" style="edgeStyle=none;rounded=0;sketch=0;orthogonalLoop=1;jettySize=auto;html=1;exitX=0.5;exitY=1;exitDx=0;exitDy=0;entryX=0.5;entryY=0;entryDx=0;entryDy=0;fontSize=14;fontColor=#000000;endArrow=async;endFill=0;" edge="1" parent="1" source="DcJpeOVkso_X0u59leY8-2" target="DcJpeOVkso_X0u59leY8-1">
          <mxGeometry relative="1" as="geometry" />
        </mxCell>
        <mxCell id="DcJpeOVkso_X0u59leY8-2" value="&lt;div&gt;Logic Contract&lt;/div&gt;(Proxy)" style="rounded=0;whiteSpace=wrap;html=1;" vertex="1" parent="1">
          <mxGeometry x="280" y="480" width="120" height="60" as="geometry" />
        </mxCell>
        <mxCell id="DcJpeOVkso_X0u59leY8-73" style="edgeStyle=none;rounded=0;sketch=0;orthogonalLoop=1;jettySize=auto;html=1;exitX=0.5;exitY=1;exitDx=0;exitDy=0;entryX=0.5;entryY=0;entryDx=0;entryDy=0;fontSize=14;fontColor=#000000;endArrow=classic;endFill=1;" edge="1" parent="1" source="DcJpeOVkso_X0u59leY8-3" target="DcJpeOVkso_X0u59leY8-72">
          <mxGeometry relative="1" as="geometry" />
        </mxCell>
        <mxCell id="DcJpeOVkso_X0u59leY8-3" value="External Contract" style="rounded=0;whiteSpace=wrap;html=1;" vertex="1" parent="1">
          <mxGeometry x="615" y="540" width="120" height="60" as="geometry" />
        </mxCell>
        <mxCell id="DcJpeOVkso_X0u59leY8-17" value="&lt;font style=&quot;font-size: 14px;&quot;&gt;send gas to job list&lt;/font&gt;" style="edgeStyle=orthogonalEdgeStyle;rounded=0;sketch=0;orthogonalLoop=1;jettySize=auto;html=1;exitX=1;exitY=0.5;exitDx=0;exitDy=0;endArrow=async;endFill=1;" edge="1" parent="1" source="DcJpeOVkso_X0u59leY8-4" target="DcJpeOVkso_X0u59leY8-16">
          <mxGeometry relative="1" as="geometry" />
        </mxCell>
        <mxCell id="DcJpeOVkso_X0u59leY8-4" value="Factory&lt;br&gt;&lt;div&gt;(Gas Delegation)&lt;/div&gt;" style="rounded=0;whiteSpace=wrap;html=1;" vertex="1" parent="1">
          <mxGeometry x="280" y="330" width="120" height="60" as="geometry" />
        </mxCell>
        <mxCell id="DcJpeOVkso_X0u59leY8-65" style="edgeStyle=orthogonalEdgeStyle;rounded=0;sketch=0;orthogonalLoop=1;jettySize=auto;html=1;exitX=1;exitY=0.5;exitDx=0;exitDy=0;entryX=0;entryY=0.5;entryDx=0;entryDy=0;fontSize=14;fontColor=#000000;endArrow=classic;endFill=1;curved=1;" edge="1" parent="1" source="DcJpeOVkso_X0u59leY8-5" target="DcJpeOVkso_X0u59leY8-30">
          <mxGeometry relative="1" as="geometry" />
        </mxCell>
        <mxCell id="DcJpeOVkso_X0u59leY8-5" value="System Jobs" style="rounded=0;whiteSpace=wrap;html=1;" vertex="1" parent="1">
          <mxGeometry x="610" y="300" width="120" height="20" as="geometry" />
        </mxCell>
        <mxCell id="DcJpeOVkso_X0u59leY8-68" style="edgeStyle=orthogonalEdgeStyle;curved=1;rounded=0;sketch=0;orthogonalLoop=1;jettySize=auto;html=1;exitX=1;exitY=0.5;exitDx=0;exitDy=0;entryX=0.5;entryY=0;entryDx=0;entryDy=0;fontSize=14;fontColor=#000000;endArrow=classic;endFill=1;" edge="1" parent="1" source="DcJpeOVkso_X0u59leY8-7" target="DcJpeOVkso_X0u59leY8-47">
          <mxGeometry relative="1" as="geometry">
            <Array as="points">
              <mxPoint x="840" y="370" />
              <mxPoint x="840" y="120" />
              <mxPoint x="1530" y="120" />
            </Array>
          </mxGeometry>
        </mxCell>
        <mxCell id="DcJpeOVkso_X0u59leY8-7" value="Paid Jobs" style="rounded=0;whiteSpace=wrap;html=1;" vertex="1" parent="1">
          <mxGeometry x="610" y="360" width="120" height="20" as="geometry" />
        </mxCell>
        <mxCell id="DcJpeOVkso_X0u59leY8-69" style="edgeStyle=orthogonalEdgeStyle;curved=1;rounded=0;sketch=0;orthogonalLoop=1;jettySize=auto;html=1;exitX=1;exitY=0.5;exitDx=0;exitDy=0;entryX=0.5;entryY=1;entryDx=0;entryDy=0;fontSize=14;fontColor=#000000;endArrow=classic;endFill=1;" edge="1" parent="1" source="DcJpeOVkso_X0u59leY8-8" target="DcJpeOVkso_X0u59leY8-58">
          <mxGeometry relative="1" as="geometry">
            <Array as="points">
              <mxPoint x="940" y="430" />
              <mxPoint x="940" y="750" />
              <mxPoint x="1313" y="750" />
            </Array>
          </mxGeometry>
        </mxCell>
        <mxCell id="DcJpeOVkso_X0u59leY8-8" value="Free Jobs" style="rounded=0;whiteSpace=wrap;html=1;" vertex="1" parent="1">
          <mxGeometry x="610" y="420" width="120" height="20" as="geometry" />
        </mxCell>
        <mxCell id="DcJpeOVkso_X0u59leY8-71" value="" style="rounded=0;sketch=0;orthogonalLoop=1;jettySize=auto;html=1;exitX=0.5;exitY=1;exitDx=0;exitDy=0;fontSize=14;fontColor=#000000;endArrow=classic;endFill=1;" edge="1" parent="1" source="DcJpeOVkso_X0u59leY8-16" target="DcJpeOVkso_X0u59leY8-3">
          <mxGeometry relative="1" as="geometry" />
        </mxCell>
        <mxCell id="DcJpeOVkso_X0u59leY8-76" value="jobs stored in factory storage" style="edgeStyle=orthogonalEdgeStyle;rounded=0;sketch=0;orthogonalLoop=1;jettySize=auto;html=1;exitX=0.5;exitY=0;exitDx=0;exitDy=0;entryX=0.5;entryY=0;entryDx=0;entryDy=0;fontSize=12;fontColor=#000000;endArrow=classic;endFill=1;" edge="1" parent="1" source="DcJpeOVkso_X0u59leY8-16" target="DcJpeOVkso_X0u59leY8-4">
          <mxGeometry relative="1" as="geometry" />
        </mxCell>
        <mxCell id="DcJpeOVkso_X0u59leY8-16" value="" style="swimlane;startSize=0;dashed=1;" vertex="1" parent="1">
          <mxGeometry x="570" y="255" width="210" height="210" as="geometry" />
        </mxCell>
        <mxCell id="DcJpeOVkso_X0u59leY8-25" value="&lt;font style=&quot;font-size: 14px;&quot; color=&quot;#ff0000&quot;&gt;Jobs Contract&lt;/font&gt;" style="text;html=1;strokeColor=none;fillColor=none;align=center;verticalAlign=middle;whiteSpace=wrap;rounded=0;" vertex="1" parent="DcJpeOVkso_X0u59leY8-16">
          <mxGeometry x="110" y="5" width="100" height="30" as="geometry" />
        </mxCell>
        <mxCell id="DcJpeOVkso_X0u59leY8-72" value="&lt;font style=&quot;font-size: 12px;&quot;&gt;call external function&lt;/font&gt;" style="rounded=1;whiteSpace=wrap;html=1;dashed=1;fontSize=14;fontColor=#000000;" vertex="1" parent="1">
          <mxGeometry x="615" y="640" width="120" height="60" as="geometry" />
        </mxCell>
        <mxCell id="DcJpeOVkso_X0u59leY8-77" value="&lt;div align=&quot;left&quot;&gt;&lt;b&gt;&lt;font style=&quot;font-size: 14px;&quot;&gt;Internal System Model of how transactions (tx) offset gas to iterate through a list of automation jobs.&lt;/font&gt;&lt;/b&gt;&lt;br&gt;&lt;/div&gt;" style="text;html=1;strokeColor=none;fillColor=none;align=left;verticalAlign=middle;whiteSpace=wrap;rounded=0;fontSize=12;fontColor=#000000;" vertex="1" parent="1">
          <mxGeometry x="310" y="80" width="470" height="100" as="geometry" />
        </mxCell>
      </root>
    </mxGraphModel>
  </diagram>
</mxfile>
